<?xml version="1.0" encoding="UTF-8" standalone="no"?>
<!DOCTYPE svg PUBLIC "-//W3C//DTD SVG 1.1//EN" "http://www.w3.org/Graphics/SVG/1.1/DTD/svg11.dtd">
<!-- Created with Vectornator (http://vectornator.io/) -->
<svg height="100%" stroke-miterlimit="10" style="fill-rule:nonzero;clip-rule:evenodd;stroke-linecap:round;stroke-linejoin:round;" version="1.1" viewBox="0 0 512 512" width="100%" xml:space="preserve" xmlns="http://www.w3.org/2000/svg" xmlns:vectornator="http://vectornator.io" xmlns:xlink="http://www.w3.org/1999/xlink">
<defs>
<linearGradient gradientTransform="matrix(404.267 0 0 404.267 59.8451 159.76)" gradientUnits="userSpaceOnUse" id="LinearGradient" x1="0" x2="1" y1="0" y2="0">
<stop offset="0" stop-color="#fddf19"/>
<stop offset="1" stop-color="#fcf9c8"/>
</linearGradient>
<linearGradient gradientTransform="matrix(57.3108 0 0 57.3108 227.676 423.644)" gradientUnits="userSpaceOnUse" id="LinearGradient_2" x1="0" x2="1" y1="0" y2="0">
<stop offset="0" stop-color="#fddf19"/>
<stop offset="1" stop-color="#fcf9c8"/>
</linearGradient>
</defs>
<clipPath id="ArtboardFrame">
<rect height="512" width="512" x="0" y="0"/>
</clipPath>
<g clip-path="url(#ArtboardFrame)" id="名称未設定" vectornator:layerName="名称未設定">
<g opacity="1" vectornator:layerName="g">
<path d="M414.555 230.889C414.721 230.745 414.899 230.612 415.066 230.467C418.144 227.768 421.014 224.947 423.833 222.096C424.523 221.405 425.28 220.756 425.951 220.057C428.735 217.151 431.294 214.143 433.807 211.104C434.362 210.436 434.989 209.803 435.531 209.123C453.657 186.443 464.112 160.439 464.112 133.837C464.112 90.587 436.412 54.351 392.887 30.515C392.493 30.3 392.135 30.058 391.743 29.847C387.758 27.698 383.578 25.718 379.343 23.785C378.235 23.277 377.199 22.711 376.068 22.219C371.918 20.406 367.583 18.765 363.217 17.16C361.943 16.691 360.736 16.157 359.444 15.703C354.044 13.817 348.478 12.113 342.796 10.551C342.531 10.477 342.285 10.387 342.02 10.317C317.465 3.645 290.422 0 261.976 0C233.532 0 206.49 3.645 181.934 10.317C181.669 10.387 181.423 10.477 181.159 10.551C175.475 12.113 169.909 13.817 164.511 15.703C163.21 16.157 162.005 16.691 160.725 17.164C156.365 18.77 152.037 20.406 147.887 22.219C146.749 22.715 145.696 23.289 144.574 23.801C140.349 25.731 136.182 27.703 132.21 29.844C131.803 30.063 131.441 30.313 131.034 30.535C87.5279 54.368 59.8451 90.594 59.8451 133.837C59.8451 160.443 70.2937 186.451 88.4326 209.135C88.9748 209.81 89.6021 210.447 90.1569 211.115C92.6631 214.15 95.2244 217.158 98.008 220.061C98.7535 220.843 99.6031 221.565 100.366 222.339C103.112 225.097 105.889 227.835 108.868 230.456C109.268 230.808 109.718 231.128 110.124 231.48C138.582 256.062 177.231 274.058 221.05 280.598C223.557 280.98 226.02 281.465 228.556 281.77L214.815 310.645C212.801 315.121 217.967 319.52 225.283 319.52L298.673 319.52C305.988 319.52 311.283 315.121 309.141 310.645L296.629 284.359L295.415 281.753C342.709 276.214 384.415 257.187 414.555 230.889ZM251.257 54.079C216.457 70.556 188.338 93.361 171.567 121.041C165.133 131.839 160.725 142.878 158.2 153.924C156.058 163.924 133.608 165.12 128.818 155.518C124.151 146.08 121.634 136.003 121.634 125.604C121.634 76.478 175.852 36.556 242.558 36.556L242.939 36.556C257.439 36.641 262.985 48.555 251.257 54.079Z" fill="url(#LinearGradient)" fill-rule="nonzero" opacity="1" stroke="none" vectornator:layerName="path"/>
<path d="M264.587 418.911C256.86 412.2 250.221 406.395 248.393 393.419C246.564 380.434 251.441 373.981 257.136 366.505C262.892 358.856 269.462 350.294 268.108 335.294L249.342 335.294L247.962 335.286L247.969 335.294L247.717 335.294C249.071 347.419 244.329 353.692 238.838 360.919C232.743 368.958 225.828 378.068 228.129 394.576C230.5 411.084 239.853 419.248 248.122 426.474C255.774 433.224 262.418 439.029 264.315 451.967C266.144 464.951 261.199 471.444 255.505 478.921C250.357 485.671 244.662 493.233 244.391 505.359C244.329 509.226 249.409 512.32 255.505 511.976C260.793 511.679 264.653 508.843 264.721 505.445C264.924 496.242 269.123 490.742 273.87 484.507C279.966 476.468 286.88 467.358 284.51 450.85C282.202 434.294 272.855 426.13 264.587 418.911Z" fill="url(#LinearGradient_2)" fill-rule="nonzero" opacity="1" stroke="none" vectornator:layerName="path"/>
</g>
<g fill="#3e68ff" opacity="1" stroke="none" vectornator:layerName="テキスト 1">
<path d="M159.875 200.713L156.291 200.969C151.683 201.481 148.099 201.737 142.595 201.993C143.235 206.217 144.131 210.953 145.027 214.409C145.411 215.689 145.923 216.329 146.563 216.329C147.587 216.329 148.099 215.945 148.739 215.561C149.635 215.049 151.555 214.409 153.731 214.025C165.507 212.233 180.739 209.417 196.355 206.217C200.323 205.449 200.323 205.449 200.451 201.225C200.579 199.305 200.707 197.385 201.091 195.593C212.099 205.193 226.051 210.697 244.355 215.177C248.323 216.201 248.451 215.945 249.859 212.361C251.139 209.033 252.803 205.833 254.723 203.401C242.435 201.353 231.811 199.049 223.107 195.465C229.379 191.497 233.603 188.297 237.955 185.097C239.619 183.817 240.899 183.177 242.051 182.793C243.203 182.537 243.971 182.025 243.971 181.129C243.971 180.361 243.331 179.721 242.435 179.081C239.491 177.033 236.419 175.113 232.707 172.937C232.579 170.889 232.579 168.073 232.579 164.105L232.579 147.465C232.579 142.089 232.707 138.761 232.707 136.841C237.571 139.273 242.691 141.449 248.067 143.241C249.475 143.753 250.371 144.009 251.139 144.009C252.163 144.009 252.547 143.113 253.443 140.681C254.595 137.353 256.259 134.281 258.307 131.721C235.267 125.961 215.299 113.673 204.035 102.281L204.419 102.025C205.315 101.513 205.699 101.129 205.699 100.489C205.699 99.8494 204.675 99.3374 203.523 99.0814C199.683 98.0574 194.819 97.1614 190.083 96.6494C188.675 99.4654 187.011 101.897 184.835 104.073C173.187 116.489 157.699 126.857 135.939 133.641C137.859 135.689 139.651 138.377 141.059 141.961C142.083 144.393 142.467 145.289 143.491 145.289C144.131 145.289 145.027 144.905 146.435 144.393C151.043 142.601 155.523 140.681 159.747 138.505C159.747 141.321 159.875 145.801 159.875 152.073L159.875 200.713ZM168.323 133.641C179.203 126.985 188.547 119.177 196.611 109.833C204.291 118.665 214.531 126.857 226.563 133.513C223.619 133.641 219.395 133.641 213.379 133.641L202.499 133.641L202.499 131.081C202.499 127.753 202.627 126.473 203.267 125.449C203.779 124.681 204.035 124.041 204.035 122.889C204.035 122.249 203.395 121.609 202.115 121.481C197.507 120.969 193.923 120.713 189.187 120.585C189.955 125.193 190.083 128.137 190.083 132.617L190.083 133.641L168.323 133.641ZM173.059 177.929L187.011 177.929C190.723 184.457 194.947 189.833 199.811 194.313C190.211 196.233 181.507 197.769 173.059 199.049L173.059 177.929ZM219.907 168.073L173.059 168.073L173.059 160.265L219.907 160.265L219.907 168.073ZM219.907 143.497L219.907 150.665L173.059 150.665L173.059 143.497L219.907 143.497ZM213.379 177.929C220.163 177.929 224.771 178.057 227.715 178.057C223.747 181.641 218.755 185.353 212.227 189.577C207.747 186.377 203.907 182.665 200.835 177.929L213.379 177.929Z"/>
<path d="M318.467 179.337L318.467 185.353L297.475 185.353C284.931 185.353 280.707 185.097 279.939 185.097C278.659 185.097 278.531 185.225 278.531 186.633L278.531 193.545C278.531 194.953 278.659 195.081 279.939 195.081C280.707 195.081 284.931 194.825 297.475 194.825L318.467 194.825L318.467 197.769C318.467 201.481 317.315 202.377 311.811 202.505C307.075 202.633 303.619 202.505 298.883 201.993C301.059 205.065 302.723 208.521 303.875 211.721C305.155 215.305 305.155 215.433 308.995 215.433C318.211 215.305 323.843 214.409 327.043 212.617C330.499 210.569 331.651 207.113 331.651 201.225C331.651 199.305 331.651 197.129 331.523 194.825L358.531 194.825L358.531 197.641C358.531 198.921 358.659 199.049 359.939 199.049L369.795 199.049C371.075 199.049 371.203 198.921 371.203 197.641C371.203 196.873 370.947 193.545 370.947 185.865L370.947 179.337C378.499 179.465 381.443 179.593 382.083 179.593C383.235 179.593 383.363 179.465 383.363 178.185L383.363 170.505C383.363 169.225 383.235 169.097 382.083 169.097C381.443 169.097 378.499 169.353 370.947 169.353L370.947 166.409C370.947 159.113 371.203 156.041 371.203 155.273C371.203 153.993 371.075 153.865 369.795 153.865C369.155 153.865 364.675 154.121 352.131 154.121L331.395 154.121L331.395 148.489L348.419 148.489C360.963 148.489 365.443 148.745 366.339 148.745C367.619 148.745 367.747 148.617 367.747 147.209C367.747 146.441 367.491 144.777 367.491 140.553L367.491 133.641C367.491 129.417 367.747 127.753 367.747 126.985C367.747 125.577 367.619 125.449 366.339 125.449C365.443 125.449 360.963 125.705 348.419 125.705L331.395 125.705L331.395 120.073L363.907 120.073C375.427 120.073 379.395 120.329 380.163 120.329C381.443 120.329 381.571 120.201 381.571 118.921L381.571 110.857C381.571 109.577 381.443 109.449 380.163 109.449C379.395 109.449 375.427 109.705 363.907 109.705L331.395 109.705C331.395 105.481 331.651 103.945 332.163 102.537C332.547 101.769 332.931 101.129 332.931 100.105C332.931 99.3374 332.035 98.8254 330.883 98.6974C326.403 98.1854 322.307 98.0574 317.571 97.9294C318.211 101.513 318.467 104.585 318.467 109.705L286.211 109.705C274.691 109.705 270.723 109.449 269.955 109.449C268.675 109.449 268.547 109.577 268.547 110.857L268.547 118.921C268.547 120.201 268.675 120.329 269.955 120.329C270.723 120.329 274.691 120.073 286.211 120.073L318.467 120.073L318.467 125.705L301.955 125.705C289.411 125.705 284.931 125.449 284.163 125.449C282.755 125.449 282.627 125.577 282.627 126.985C282.627 127.753 282.883 129.417 282.883 133.641L282.883 140.553C282.883 144.777 282.627 146.441 282.627 147.209C282.627 148.617 282.755 148.745 284.163 148.745C284.931 148.745 289.411 148.489 301.955 148.489L318.467 148.489L318.467 154.121L297.347 154.121C284.931 154.121 280.707 153.865 279.939 153.865C278.659 153.865 278.531 153.993 278.531 155.273L278.531 162.313C278.531 163.465 278.659 163.593 279.939 163.593C280.707 163.593 284.931 163.337 297.347 163.337L318.467 163.337L318.467 169.353L284.163 169.353C273.027 169.353 269.187 169.097 268.419 169.097C267.267 169.097 267.139 169.225 267.139 170.505L267.139 178.185C267.139 179.465 267.267 179.593 268.419 179.593C269.187 179.593 273.027 179.337 284.163 179.337L318.467 179.337ZM358.531 163.337L358.531 169.353L331.395 169.353L331.395 163.337L358.531 163.337ZM331.395 185.353L331.395 179.337L358.531 179.337L358.531 185.353L331.395 185.353ZM355.075 140.297L331.395 140.297L331.395 133.897L355.075 133.897L355.075 140.297ZM295.299 140.297L295.299 133.897L318.467 133.897L318.467 140.297L295.299 140.297Z"/>
</g>
</g>
</svg>
