<?xml version="1.0" encoding="UTF-8" standalone="no"?>
<!DOCTYPE svg PUBLIC "-//W3C//DTD SVG 1.1//EN" "http://www.w3.org/Graphics/SVG/1.1/DTD/svg11.dtd">
<!-- Created with Vectornator (http://vectornator.io/) -->
<svg height="100%" stroke-miterlimit="10" style="fill-rule:nonzero;clip-rule:evenodd;stroke-linecap:round;stroke-linejoin:round;" version="1.1" viewBox="0 0 512 512" width="100%" xml:space="preserve" xmlns="http://www.w3.org/2000/svg" xmlns:vectornator="http://vectornator.io" xmlns:xlink="http://www.w3.org/1999/xlink">
<defs>
<linearGradient gradientTransform="matrix(404.267 0 0 404.267 59.8451 159.76)" gradientUnits="userSpaceOnUse" id="LinearGradient" x1="0" x2="1" y1="0" y2="0">
<stop offset="0" stop-color="#fddf19"/>
<stop offset="1" stop-color="#fcf9c8"/>
</linearGradient>
<linearGradient gradientTransform="matrix(57.3108 0 0 57.3108 227.676 423.644)" gradientUnits="userSpaceOnUse" id="LinearGradient_2" x1="0" x2="1" y1="0" y2="0">
<stop offset="0" stop-color="#fddf19"/>
<stop offset="1" stop-color="#fcf9c8"/>
</linearGradient>
</defs>
<clipPath id="ArtboardFrame">
<rect height="512" width="512" x="0" y="0"/>
</clipPath>
<g clip-path="url(#ArtboardFrame)" id="名称未設定" vectornator:layerName="名称未設定">
<g opacity="1" vectornator:layerName="g">
<path d="M414.555 230.889C414.721 230.745 414.899 230.612 415.066 230.467C418.144 227.768 421.014 224.947 423.833 222.096C424.523 221.405 425.28 220.756 425.951 220.057C428.735 217.151 431.294 214.143 433.807 211.104C434.362 210.436 434.989 209.803 435.531 209.123C453.657 186.443 464.112 160.439 464.112 133.837C464.112 90.587 436.412 54.351 392.887 30.515C392.493 30.3 392.135 30.058 391.743 29.847C387.758 27.698 383.578 25.718 379.343 23.785C378.235 23.277 377.199 22.711 376.068 22.219C371.918 20.406 367.583 18.765 363.217 17.16C361.943 16.691 360.736 16.157 359.444 15.703C354.044 13.817 348.478 12.113 342.796 10.551C342.531 10.477 342.285 10.387 342.02 10.317C317.465 3.645 290.422 0 261.976 0C233.532 0 206.49 3.645 181.934 10.317C181.669 10.387 181.423 10.477 181.159 10.551C175.475 12.113 169.909 13.817 164.511 15.703C163.21 16.157 162.005 16.691 160.725 17.164C156.365 18.77 152.037 20.406 147.887 22.219C146.749 22.715 145.696 23.289 144.574 23.801C140.349 25.731 136.182 27.703 132.21 29.844C131.803 30.063 131.441 30.313 131.034 30.535C87.5279 54.368 59.8451 90.594 59.8451 133.837C59.8451 160.443 70.2937 186.451 88.4326 209.135C88.9748 209.81 89.6021 210.447 90.1569 211.115C92.6631 214.15 95.2244 217.158 98.008 220.061C98.7535 220.843 99.6031 221.565 100.366 222.339C103.112 225.097 105.889 227.835 108.868 230.456C109.268 230.808 109.718 231.128 110.124 231.48C138.582 256.062 177.231 274.058 221.05 280.598C223.557 280.98 226.02 281.465 228.556 281.77L214.815 310.645C212.801 315.121 217.967 319.52 225.283 319.52L298.673 319.52C305.988 319.52 311.283 315.121 309.141 310.645L296.629 284.359L295.415 281.753C342.709 276.214 384.415 257.187 414.555 230.889ZM251.257 54.079C216.457 70.556 188.338 93.361 171.567 121.041C165.133 131.839 160.725 142.878 158.2 153.924C156.058 163.924 133.608 165.12 128.818 155.518C124.151 146.08 121.634 136.003 121.634 125.604C121.634 76.478 175.852 36.556 242.558 36.556L242.939 36.556C257.439 36.641 262.985 48.555 251.257 54.079Z" fill="url(#LinearGradient)" fill-rule="nonzero" opacity="1" stroke="none" vectornator:layerName="path"/>
<path d="M264.587 418.911C256.86 412.2 250.221 406.395 248.393 393.419C246.564 380.434 251.441 373.981 257.136 366.505C262.892 358.856 269.462 350.294 268.108 335.294L249.342 335.294L247.962 335.286L247.969 335.294L247.717 335.294C249.071 347.419 244.329 353.692 238.838 360.919C232.743 368.958 225.828 378.068 228.129 394.576C230.5 411.084 239.853 419.248 248.122 426.474C255.774 433.224 262.418 439.029 264.315 451.967C266.144 464.951 261.199 471.444 255.505 478.921C250.357 485.671 244.662 493.233 244.391 505.359C244.329 509.226 249.409 512.32 255.505 511.976C260.793 511.679 264.653 508.843 264.721 505.445C264.924 496.242 269.123 490.742 273.87 484.507C279.966 476.468 286.88 467.358 284.51 450.85C282.202 434.294 272.855 426.13 264.587 418.911Z" fill="url(#LinearGradient_2)" fill-rule="nonzero" opacity="1" stroke="none" vectornator:layerName="path"/>
</g>
<g fill="#3e68ff" opacity="1" stroke="none" vectornator:layerName="テキスト 1">
<path d="M231.171 131.977L231.171 136.201L205.955 136.201C194.179 136.201 189.955 135.945 189.315 135.945C188.035 135.945 187.907 136.073 187.907 137.481L187.907 142.601C187.907 143.881 188.035 144.009 189.315 144.009C189.955 144.009 194.179 143.753 205.955 143.753L231.171 143.753L231.171 148.105L200.195 148.105C190.723 148.105 187.779 147.849 187.011 147.849C185.731 147.849 185.603 147.977 185.603 149.385L185.603 155.017C185.603 156.425 185.731 156.553 187.011 156.553C187.779 156.553 190.723 156.297 200.195 156.297L223.875 156.297C235.139 156.297 240.643 156.553 241.283 156.553C242.691 156.553 242.819 156.425 242.819 155.017C242.819 154.249 242.563 151.561 242.563 145.033L242.563 132.233L250.243 132.233C251.523 132.233 251.651 132.105 251.651 130.697C251.651 129.929 251.395 128.137 251.395 118.409L251.395 113.801C251.395 111.241 251.651 109.193 251.651 108.425C251.651 107.145 251.523 107.017 250.243 107.017C249.347 107.017 245.251 107.273 233.475 107.273L202.499 107.273C202.499 104.841 202.627 103.561 203.011 102.409C203.395 101.513 203.779 100.873 203.779 99.9774C203.779 99.4654 203.011 98.9534 201.859 98.8254C197.507 98.4414 192.771 98.1854 188.163 98.0574C188.931 101.257 189.059 103.945 189.059 107.273L160.515 107.273C148.867 107.273 144.643 107.017 143.747 107.017C142.467 107.017 142.339 107.145 142.339 108.425C142.339 109.193 142.595 111.241 142.595 114.697L142.595 118.409C142.595 128.137 142.339 129.929 142.339 130.697C142.339 132.105 142.467 132.233 143.747 132.233L153.987 132.233C155.395 132.233 155.523 132.105 155.523 130.697L155.523 117.769L238.595 117.769L238.595 123.529C235.907 123.657 231.171 123.657 223.875 123.657L202.243 123.657C191.235 123.657 187.779 123.401 187.011 123.401C185.731 123.401 185.603 123.529 185.603 124.809L185.603 130.825C185.603 132.105 185.731 132.233 187.011 132.233C187.779 132.233 191.235 131.977 202.243 131.977L231.171 131.977ZM251.395 180.873C252.675 180.873 252.803 180.745 252.803 179.465C252.803 178.697 252.547 177.417 252.547 169.609L252.547 166.281C252.547 164.361 252.675 163.081 252.675 162.313C252.675 160.905 252.547 160.777 251.267 160.777C250.371 160.777 246.147 161.033 233.859 161.033L197.379 161.033C184.835 161.033 180.483 160.777 179.715 160.777C178.435 160.777 178.307 160.905 178.307 162.313C178.307 163.081 178.435 164.361 178.435 166.921L178.435 169.353C178.435 177.161 178.179 178.569 178.179 179.465C178.179 180.745 178.307 180.873 179.587 180.873L186.755 180.873L186.755 183.177C186.755 184.457 186.883 184.585 188.163 184.585C188.547 184.585 189.571 184.585 191.491 184.457C195.843 189.833 200.323 194.313 205.187 198.025C197.507 201.353 188.035 203.913 176.643 205.705C178.179 207.753 179.203 209.417 180.227 212.233C181.251 214.921 181.507 215.561 182.915 215.561C183.555 215.561 184.451 215.433 185.603 215.177C197.251 212.873 206.851 209.417 215.427 204.681C224.003 209.289 234.115 212.489 246.787 214.537C247.811 214.665 248.707 214.793 249.347 214.793C251.011 214.793 251.267 214.025 252.163 211.337C253.059 208.393 254.211 206.089 255.747 203.913C244.099 202.761 234.499 200.713 226.435 197.513C230.019 194.697 233.475 191.497 236.803 188.041C239.235 185.353 240.259 184.713 241.283 184.073C242.307 183.561 242.691 183.049 242.691 182.281C242.691 182.025 242.435 181.513 242.051 180.873L251.395 180.873ZM190.339 170.121L240.387 170.121L240.387 179.081C239.875 178.569 239.363 178.185 238.851 177.545C235.651 174.857 234.883 174.345 233.987 174.345C233.475 174.345 232.963 174.601 232.579 174.729C231.683 175.113 231.171 175.241 229.635 175.241L203.139 175.241C196.227 175.241 192.387 175.241 190.339 175.113L190.339 170.121ZM225.539 184.329C222.723 187.273 219.651 189.961 215.939 192.393C212.099 190.089 208.643 187.401 205.443 184.329L225.539 184.329ZM160.899 167.817C155.523 171.273 149.891 174.345 144.387 176.905C142.083 178.057 139.907 178.825 136.835 179.849C137.987 184.201 139.267 188.553 140.803 192.265C141.443 193.545 142.083 194.057 142.851 194.057C143.491 194.057 144.259 193.417 144.771 192.777C145.283 192.009 146.563 190.857 148.483 189.705C152.323 187.401 156.675 184.713 160.899 181.897L160.899 193.289C160.899 206.857 160.643 213.641 160.643 214.281C160.643 215.561 160.771 215.689 162.179 215.689L172.419 215.689C173.699 215.689 173.827 215.561 173.827 214.281C173.827 213.641 173.571 206.857 173.571 193.289L173.571 141.577C173.571 132.105 173.827 128.905 174.467 127.369C174.851 126.345 175.107 125.705 175.107 124.809C175.107 124.169 174.339 123.529 173.059 123.401C168.707 122.889 164.867 122.633 160.131 122.505C161.027 128.777 160.899 131.593 160.899 137.609L160.899 167.817ZM140.163 141.193C138.883 142.089 138.627 142.473 139.395 143.753C142.595 148.617 145.795 154.377 148.611 161.289C148.995 162.185 149.251 162.569 149.763 162.569C150.019 162.569 150.531 162.313 151.171 161.929L157.955 157.321C159.235 156.425 159.363 156.041 158.851 154.761C156.035 148.489 152.707 142.473 148.995 137.225C148.227 136.201 147.971 136.329 146.691 137.097L140.163 141.193Z"/>
<path d="M364.675 211.209C376.067 211.209 380.035 211.465 380.803 211.465C382.083 211.465 382.083 211.337 382.083 210.057L382.083 200.329C382.083 199.049 382.083 199.049 380.803 199.049C380.035 199.049 376.067 199.177 364.675 199.177L330.755 199.177L330.755 188.425L349.699 188.425C362.243 188.425 366.595 188.681 367.363 188.681C368.643 188.681 368.771 188.553 368.771 187.273L368.771 178.313C368.771 176.905 368.643 176.777 367.363 176.777C366.595 176.777 362.243 177.033 349.699 177.033L330.755 177.033C330.755 173.449 330.883 171.913 331.395 170.889C331.779 169.993 332.163 169.353 332.163 168.457C332.163 167.817 331.395 167.305 330.115 167.177C325.635 166.793 321.283 166.537 316.803 166.409C317.315 169.225 317.571 172.297 317.571 177.033L300.291 177.033C287.875 177.033 283.523 176.777 282.627 176.777C281.347 176.777 281.219 176.905 281.219 178.313L281.219 187.273C281.219 188.553 281.347 188.681 282.627 188.681C283.523 188.681 287.875 188.425 300.291 188.425L317.571 188.425L317.571 199.177L285.315 199.177C274.051 199.177 270.083 199.049 269.315 199.049C268.035 199.049 268.035 199.049 268.035 200.329L268.035 210.057C268.035 211.337 268.035 211.465 269.315 211.465C270.083 211.465 274.051 211.209 285.315 211.209L364.675 211.209ZM306.307 140.169C304.387 144.649 301.443 149.513 298.243 154.505C295.811 154.633 293.379 154.633 291.075 154.633C286.723 154.633 282.371 154.633 277.763 154.377C278.403 158.089 279.171 162.441 279.939 165.769C280.195 166.921 280.579 167.433 281.347 167.433C281.987 167.433 282.499 167.177 283.011 166.793C283.779 166.281 284.931 166.153 287.619 166.025C309.507 165.257 332.803 163.721 354.179 161.673L359.683 168.969C360.067 169.609 360.451 169.865 360.835 169.865C361.091 169.865 361.475 169.737 362.115 169.225L369.283 164.105C370.691 163.081 370.819 162.569 369.923 161.417C363.907 154.121 355.971 145.929 349.187 140.553L348.675 140.169C356.739 140.297 360.195 140.425 360.963 140.425C362.243 140.425 362.371 140.297 362.371 139.017L362.371 130.441C362.371 129.161 362.243 129.033 360.963 129.033C360.195 129.033 355.971 129.289 345.347 129.289L304.387 129.289C293.763 129.289 289.539 129.033 288.643 129.033C287.363 129.033 287.235 129.161 287.235 130.441L287.235 139.017C287.235 140.297 287.363 140.425 288.643 140.425C289.539 140.425 293.763 140.169 304.387 140.169L306.307 140.169ZM346.627 140.169L340.483 144.137C338.947 145.033 338.563 145.289 339.715 146.313L345.987 152.329C334.851 153.097 323.459 153.737 312.323 154.121C315.139 150.153 317.827 145.545 320.515 140.169L346.627 140.169ZM330.755 109.065L330.755 107.657C330.755 105.097 330.883 103.561 331.395 102.537C331.779 101.641 332.163 101.001 332.163 100.105C332.163 99.3374 331.395 98.8254 330.115 98.6974C325.763 98.3134 321.155 98.0574 316.419 97.9294C317.059 100.873 317.315 103.945 317.315 107.529L317.315 109.065L288.515 109.065C276.739 109.065 272.515 108.809 271.747 108.809C270.339 108.809 270.211 108.937 270.211 110.345C270.211 110.985 270.467 113.033 270.467 117.129L270.467 121.225C270.467 131.849 270.211 133.641 270.211 134.409C270.211 135.689 270.339 135.817 271.747 135.817L281.987 135.817C283.267 135.817 283.395 135.689 283.395 134.409L283.395 120.585L366.211 120.585L366.211 134.409C366.211 135.689 366.339 135.817 367.747 135.817L377.987 135.817C379.267 135.817 379.395 135.689 379.395 134.409C379.395 133.641 379.139 131.849 379.139 121.225L379.139 116.233C379.139 113.033 379.395 110.985 379.395 110.345C379.395 108.937 379.267 108.809 377.987 108.809C377.091 108.809 372.867 109.065 361.219 109.065L330.755 109.065Z"/>
</g>
</g>
</svg>
