<?xml version="1.0" encoding="UTF-8" standalone="no"?>
<!DOCTYPE svg PUBLIC "-//W3C//DTD SVG 1.1//EN" "http://www.w3.org/Graphics/SVG/1.1/DTD/svg11.dtd">
<!-- Created with Vectornator (http://vectornator.io/) -->
<svg height="100%" stroke-miterlimit="10" style="fill-rule:nonzero;clip-rule:evenodd;stroke-linecap:round;stroke-linejoin:round;" version="1.1" viewBox="0 0 512 512" width="100%" xml:space="preserve" xmlns="http://www.w3.org/2000/svg" xmlns:vectornator="http://vectornator.io" xmlns:xlink="http://www.w3.org/1999/xlink">
<defs>
<linearGradient gradientTransform="matrix(404.267 0 0 404.267 59.8451 159.76)" gradientUnits="userSpaceOnUse" id="LinearGradient" x1="0" x2="1" y1="0" y2="0">
<stop offset="0" stop-color="#fddf19"/>
<stop offset="1" stop-color="#fcf9c8"/>
</linearGradient>
<linearGradient gradientTransform="matrix(57.3108 0 0 57.3108 227.676 423.644)" gradientUnits="userSpaceOnUse" id="LinearGradient_2" x1="0" x2="1" y1="0" y2="0">
<stop offset="0" stop-color="#fddf19"/>
<stop offset="1" stop-color="#fcf9c8"/>
</linearGradient>
</defs>
<clipPath id="ArtboardFrame">
<rect height="512" width="512" x="0" y="0"/>
</clipPath>
<g clip-path="url(#ArtboardFrame)" id="名称未設定" vectornator:layerName="名称未設定">
<g opacity="1" vectornator:layerName="g">
<path d="M414.555 230.889C414.721 230.745 414.899 230.612 415.066 230.467C418.144 227.768 421.014 224.947 423.833 222.096C424.523 221.405 425.28 220.756 425.951 220.057C428.735 217.151 431.294 214.143 433.807 211.104C434.362 210.436 434.989 209.803 435.531 209.123C453.657 186.443 464.112 160.439 464.112 133.837C464.112 90.587 436.412 54.351 392.887 30.515C392.493 30.3 392.135 30.058 391.743 29.847C387.758 27.698 383.578 25.718 379.343 23.785C378.235 23.277 377.199 22.711 376.068 22.219C371.918 20.406 367.583 18.765 363.217 17.16C361.943 16.691 360.736 16.157 359.444 15.703C354.044 13.817 348.478 12.113 342.796 10.551C342.531 10.477 342.285 10.387 342.02 10.317C317.465 3.645 290.422 0 261.976 0C233.532 0 206.49 3.645 181.934 10.317C181.669 10.387 181.423 10.477 181.159 10.551C175.475 12.113 169.909 13.817 164.511 15.703C163.21 16.157 162.005 16.691 160.725 17.164C156.365 18.77 152.037 20.406 147.887 22.219C146.749 22.715 145.696 23.289 144.574 23.801C140.349 25.731 136.182 27.703 132.21 29.844C131.803 30.063 131.441 30.313 131.034 30.535C87.5279 54.368 59.8451 90.594 59.8451 133.837C59.8451 160.443 70.2937 186.451 88.4326 209.135C88.9748 209.81 89.6021 210.447 90.1569 211.115C92.6631 214.15 95.2244 217.158 98.008 220.061C98.7535 220.843 99.6031 221.565 100.366 222.339C103.112 225.097 105.889 227.835 108.868 230.456C109.268 230.808 109.718 231.128 110.124 231.48C138.582 256.062 177.231 274.058 221.05 280.598C223.557 280.98 226.02 281.465 228.556 281.77L214.815 310.645C212.801 315.121 217.967 319.52 225.283 319.52L298.673 319.52C305.988 319.52 311.283 315.121 309.141 310.645L296.629 284.359L295.415 281.753C342.709 276.214 384.415 257.187 414.555 230.889ZM251.257 54.079C216.457 70.556 188.338 93.361 171.567 121.041C165.133 131.839 160.725 142.878 158.2 153.924C156.058 163.924 133.608 165.12 128.818 155.518C124.151 146.08 121.634 136.003 121.634 125.604C121.634 76.478 175.852 36.556 242.558 36.556L242.939 36.556C257.439 36.641 262.985 48.555 251.257 54.079Z" fill="url(#LinearGradient)" fill-rule="nonzero" opacity="1" stroke="none" vectornator:layerName="path"/>
<path d="M264.587 418.911C256.86 412.2 250.221 406.395 248.393 393.419C246.564 380.434 251.441 373.981 257.136 366.505C262.892 358.856 269.462 350.294 268.108 335.294L249.342 335.294L247.962 335.286L247.969 335.294L247.717 335.294C249.071 347.419 244.329 353.692 238.838 360.919C232.743 368.958 225.828 378.068 228.129 394.576C230.5 411.084 239.853 419.248 248.122 426.474C255.774 433.224 262.418 439.029 264.315 451.967C266.144 464.951 261.199 471.444 255.505 478.921C250.357 485.671 244.662 493.233 244.391 505.359C244.329 509.226 249.409 512.32 255.505 511.976C260.793 511.679 264.653 508.843 264.721 505.445C264.924 496.242 269.123 490.742 273.87 484.507C279.966 476.468 286.88 467.358 284.51 450.85C282.202 434.294 272.855 426.13 264.587 418.911Z" fill="url(#LinearGradient_2)" fill-rule="nonzero" opacity="1" stroke="none" vectornator:layerName="path"/>
</g>
<g fill="#3e68ff" opacity="1" stroke="none" vectornator:layerName="テキスト 1">
<path d="M165.379 151.049C165.507 147.337 165.635 143.369 165.635 139.273L165.635 136.585L226.819 136.585C239.235 136.585 243.587 136.841 244.355 136.841C245.635 136.841 245.763 136.713 245.763 135.433C245.763 134.665 245.507 132.105 245.507 125.577L245.507 114.953C245.507 108.297 245.763 105.737 245.763 104.969C245.763 103.689 245.635 103.561 244.355 103.561C243.587 103.561 239.235 103.817 226.819 103.817L171.267 103.817C158.851 103.817 154.371 103.561 153.603 103.561C152.323 103.561 152.195 103.689 152.195 104.969C152.195 105.737 152.451 113.929 152.451 132.105C152.451 150.537 151.299 162.825 149.635 173.193C147.715 184.585 144.003 194.569 137.091 203.785C139.523 205.193 142.851 208.265 145.539 211.465C146.819 212.873 147.459 213.641 148.099 213.641C148.739 213.641 149.251 212.745 150.403 211.081C157.059 200.841 160.643 190.217 162.691 178.569C163.459 173.321 164.227 168.201 164.611 162.825L198.915 162.825L198.915 173.321L189.699 173.321C177.667 173.321 173.571 173.065 172.675 173.065C171.395 173.065 171.267 173.193 171.267 174.473C171.267 175.369 171.523 178.569 171.523 186.633L171.523 194.953C171.523 210.569 171.267 213.513 171.267 214.409C171.267 215.689 171.395 215.817 172.675 215.817L183.043 215.817C184.323 215.817 184.451 215.689 184.451 214.409L184.451 209.929L228.867 209.929L228.867 214.025C228.867 215.433 228.995 215.561 230.275 215.561L240.899 215.561C242.179 215.561 242.307 215.433 242.307 214.025C242.307 213.257 242.051 210.313 242.051 194.697L242.051 185.097C242.051 178.569 242.307 175.241 242.307 174.473C242.307 173.193 242.179 173.065 240.899 173.065C240.003 173.065 235.907 173.321 223.875 173.321L211.971 173.321L211.971 162.825L234.243 162.825C246.787 162.825 251.139 163.081 251.907 163.081C253.187 163.081 253.315 162.953 253.315 161.673L253.315 152.201C253.315 150.921 253.187 150.793 251.907 150.793C251.139 150.793 246.787 151.049 234.243 151.049L211.971 151.049C211.971 146.441 212.227 144.905 212.867 143.753C213.379 142.729 213.635 142.089 213.635 141.321C213.635 140.553 212.867 140.041 211.587 139.913C208.259 139.401 202.883 139.017 198.019 138.889C198.787 142.089 198.915 145.289 198.915 151.049L165.379 151.049ZM232.323 125.449L165.635 125.449L165.635 115.337L232.323 115.337L232.323 125.449ZM184.451 184.329L228.867 184.329L228.867 198.921L184.451 198.921L184.451 184.329Z"/>
<path d="M378.243 120.713C378.243 109.833 378.499 104.585 378.499 103.817C378.499 102.409 378.371 102.281 377.091 102.281C376.323 102.281 372.867 102.537 362.883 102.537L344.067 102.537C334.083 102.537 330.755 102.281 329.987 102.281C328.707 102.281 328.579 102.409 328.579 103.817C328.579 104.585 328.835 107.657 328.835 115.081L328.835 132.745C328.835 140.297 328.579 143.241 328.579 144.009C328.579 145.417 328.707 145.545 329.987 145.545C330.755 145.545 334.083 145.289 344.067 145.289L365.059 145.289L365.059 196.361C365.059 200.201 364.035 201.353 359.811 201.353C357.123 201.353 353.027 201.225 349.059 200.713C350.339 203.273 351.363 206.473 352.131 210.057C352.899 214.153 352.899 214.025 356.739 214.025C368.771 214.025 372.355 213.001 375.043 210.569C377.859 208.009 378.755 204.937 378.755 198.793C378.755 192.521 378.243 182.281 378.243 173.321L378.243 120.713ZM341.379 136.073L341.379 128.393L365.059 128.393L365.059 136.073L341.379 136.073ZM365.059 112.137L365.059 119.689L341.379 119.689L341.379 112.137L365.059 112.137ZM287.875 102.537C278.531 102.537 273.667 102.281 272.771 102.281C271.491 102.281 271.363 102.409 271.363 103.817C271.363 104.585 271.619 113.545 271.619 131.337L271.619 186.761C271.619 204.425 271.363 213.129 271.363 214.025C271.363 215.305 271.491 215.433 272.771 215.433L283.651 215.433C284.931 215.433 285.059 215.305 285.059 214.025C285.059 213.129 284.803 204.425 284.803 186.761L284.803 145.289L305.539 145.289C313.859 145.289 317.699 145.545 318.467 145.545C319.619 145.545 319.747 145.417 319.747 144.009C319.747 143.241 319.491 139.657 319.491 131.849L319.491 115.977C319.491 108.297 319.747 104.585 319.747 103.817C319.747 102.409 319.619 102.281 318.467 102.281C317.699 102.281 313.859 102.537 305.539 102.537L287.875 102.537ZM306.947 136.073L284.803 136.073L284.803 128.393L306.947 128.393L306.947 136.073ZM306.947 112.137L306.947 119.689L284.803 119.689L284.803 112.137L306.947 112.137ZM311.171 206.601C312.579 206.601 312.707 206.473 312.707 205.065L312.707 199.817L336.131 199.817L336.131 203.785C336.131 205.065 336.259 205.193 337.539 205.193L346.755 205.193C348.035 205.193 348.163 205.065 348.163 203.785C348.163 203.145 347.907 199.689 347.907 181.129L347.907 168.457C347.907 159.241 348.163 155.401 348.163 154.633C348.163 153.353 348.035 153.225 346.755 153.225C345.859 153.225 342.787 153.481 333.059 153.481L315.779 153.481C306.051 153.481 302.979 153.225 302.083 153.225C300.803 153.225 300.675 153.353 300.675 154.633C300.675 155.529 300.931 159.369 300.931 170.633L300.931 181.897C300.931 200.841 300.675 204.297 300.675 205.065C300.675 206.473 300.803 206.601 302.083 206.601L311.171 206.601ZM312.707 190.089L312.707 181.129L336.131 181.129L336.131 190.089L312.707 190.089ZM312.707 163.337L336.131 163.337L336.131 171.913L312.707 171.913L312.707 163.337Z"/>
</g>
</g>
</svg>
