<?xml version="1.0" encoding="UTF-8" standalone="no"?>
<!DOCTYPE svg PUBLIC "-//W3C//DTD SVG 1.1//EN" "http://www.w3.org/Graphics/SVG/1.1/DTD/svg11.dtd">
<!-- Created with Vectornator (http://vectornator.io/) -->
<svg height="100%" stroke-miterlimit="10" style="fill-rule:nonzero;clip-rule:evenodd;stroke-linecap:round;stroke-linejoin:round;" version="1.1" viewBox="0 0 512 512" width="100%" xml:space="preserve" xmlns="http://www.w3.org/2000/svg" xmlns:vectornator="http://vectornator.io" xmlns:xlink="http://www.w3.org/1999/xlink">
<defs>
<linearGradient gradientTransform="matrix(404.267 0 0 404.267 59.8451 159.76)" gradientUnits="userSpaceOnUse" id="LinearGradient" x1="0" x2="1" y1="0" y2="0">
<stop offset="0" stop-color="#05d3f1"/>
<stop offset="1" stop-color="#b2f9ff"/>
</linearGradient>
<linearGradient gradientTransform="matrix(57.3108 0 0 57.3108 227.676 423.644)" gradientUnits="userSpaceOnUse" id="LinearGradient_2" x1="0" x2="1" y1="0" y2="0">
<stop offset="0" stop-color="#05d3f1"/>
<stop offset="1" stop-color="#b2f9ff"/>
</linearGradient>
</defs>
<clipPath id="ArtboardFrame">
<rect height="512" width="512" x="0" y="0"/>
</clipPath>
<g clip-path="url(#ArtboardFrame)" id="名称未設定" vectornator:layerName="名称未設定">
<g opacity="1" vectornator:layerName="g">
<path d="M414.555 230.889C414.721 230.745 414.899 230.612 415.066 230.467C418.144 227.768 421.014 224.947 423.833 222.096C424.523 221.405 425.28 220.756 425.951 220.057C428.735 217.151 431.294 214.143 433.807 211.104C434.362 210.436 434.989 209.803 435.531 209.123C453.657 186.443 464.112 160.439 464.112 133.837C464.112 90.587 436.412 54.351 392.887 30.515C392.493 30.3 392.135 30.058 391.743 29.847C387.758 27.698 383.578 25.718 379.343 23.785C378.235 23.277 377.199 22.711 376.068 22.219C371.918 20.406 367.583 18.765 363.217 17.16C361.943 16.691 360.736 16.157 359.444 15.703C354.044 13.817 348.478 12.113 342.796 10.551C342.531 10.477 342.285 10.387 342.02 10.317C317.465 3.645 290.422 0 261.976 0C233.532 0 206.49 3.645 181.934 10.317C181.669 10.387 181.423 10.477 181.159 10.551C175.475 12.113 169.909 13.817 164.511 15.703C163.21 16.157 162.005 16.691 160.725 17.164C156.365 18.77 152.037 20.406 147.887 22.219C146.749 22.715 145.696 23.289 144.574 23.801C140.349 25.731 136.182 27.703 132.21 29.844C131.803 30.063 131.441 30.313 131.034 30.535C87.5279 54.368 59.8451 90.594 59.8451 133.837C59.8451 160.443 70.2937 186.451 88.4326 209.135C88.9748 209.81 89.6021 210.447 90.1569 211.115C92.6631 214.15 95.2244 217.158 98.008 220.061C98.7535 220.843 99.6031 221.565 100.366 222.339C103.112 225.097 105.889 227.835 108.868 230.456C109.268 230.808 109.718 231.128 110.124 231.48C138.582 256.062 177.231 274.058 221.05 280.598C223.557 280.98 226.02 281.465 228.556 281.77L214.815 310.645C212.801 315.121 217.967 319.52 225.283 319.52L298.673 319.52C305.988 319.52 311.283 315.121 309.141 310.645L296.629 284.359L295.415 281.753C342.709 276.214 384.415 257.187 414.555 230.889ZM251.257 54.079C216.457 70.556 188.338 93.361 171.567 121.041C165.133 131.839 160.725 142.878 158.2 153.924C156.058 163.924 133.608 165.12 128.818 155.518C124.151 146.08 121.634 136.003 121.634 125.604C121.634 76.478 175.852 36.556 242.558 36.556L242.939 36.556C257.439 36.641 262.985 48.555 251.257 54.079Z" fill="url(#LinearGradient)" fill-rule="nonzero" opacity="1" stroke="none" vectornator:layerName="path"/>
<path d="M264.587 418.911C256.86 412.2 250.221 406.395 248.393 393.419C246.564 380.434 251.441 373.981 257.136 366.505C262.892 358.856 269.462 350.294 268.108 335.294L249.342 335.294L247.962 335.286L247.969 335.294L247.717 335.294C249.071 347.419 244.329 353.692 238.838 360.919C232.743 368.958 225.828 378.068 228.129 394.576C230.5 411.084 239.853 419.248 248.122 426.474C255.774 433.224 262.418 439.029 264.315 451.967C266.144 464.951 261.199 471.444 255.505 478.921C250.357 485.671 244.662 493.233 244.391 505.359C244.329 509.226 249.409 512.32 255.505 511.976C260.793 511.679 264.653 508.843 264.721 505.445C264.924 496.242 269.123 490.742 273.87 484.507C279.966 476.468 286.88 467.358 284.51 450.85C282.202 434.294 272.855 426.13 264.587 418.911Z" fill="url(#LinearGradient_2)" fill-rule="nonzero" opacity="1" stroke="none" vectornator:layerName="path"/>
</g>
</g>
</svg>
